<svg width="608" height="351" viewBox="0 0 608 351" fill="none" xmlns="http://www.w3.org/2000/svg">
<rect width="608" height="351" fill="white"/>
<path d="M223.931 213.732C217.925 213.732 213.018 212.39 209.209 209.704C205.4 206.97 203.496 202.917 203.496 197.546C203.496 196.521 203.545 195.422 203.643 194.25C203.789 193.029 203.984 191.76 204.229 190.441L213.164 149.426H201.738L204.375 136.315H215.874L219.756 117.272H235.503L231.475 136.315H247.734L245.098 149.426H228.838L220.708 186.779C220.464 187.902 220.269 188.977 220.122 190.002C220.024 191.027 219.976 191.955 219.976 192.785C219.976 195.52 220.83 197.473 222.539 198.645C224.297 199.816 226.689 200.402 229.717 200.402C230.547 200.402 231.255 200.402 231.841 200.402C232.427 200.354 232.964 200.305 233.452 200.256C233.989 200.207 234.502 200.134 234.99 200.036L232.354 212.927C231.133 213.122 229.79 213.293 228.325 213.439C226.86 213.635 225.396 213.732 223.931 213.732ZM235.951 213L252.357 135.729H268.178L251.771 213H235.951ZM264.882 123.571C262.392 123.571 260.243 122.644 258.437 120.788C256.679 118.933 255.8 116.711 255.8 114.123C255.8 111.486 256.679 109.265 258.437 107.458C260.243 105.603 262.392 104.675 264.882 104.675C267.47 104.675 269.643 105.603 271.4 107.458C273.158 109.265 274.037 111.486 274.037 114.123C274.037 116.711 273.158 118.933 271.4 120.788C269.643 122.644 267.47 123.571 264.882 123.571ZM292.869 214.318C287.107 214.318 282.127 212.976 277.928 210.29C273.729 207.604 270.481 203.845 268.187 199.011C265.94 194.177 264.817 188.488 264.817 181.945C264.817 175.158 265.77 168.884 267.674 163.122C269.627 157.312 272.361 152.258 275.877 147.961C279.393 143.664 283.494 140.344 288.182 138C292.869 135.607 297.923 134.411 303.343 134.411C307.396 134.411 311.082 135.144 314.402 136.608C317.771 138.024 320.604 139.953 322.898 142.395C325.193 144.836 326.731 147.619 327.513 150.744H327.952L337.327 107.312H353.074L330.516 213H314.915L317.479 201.062H317.112C314.72 204.968 311.351 208.166 307.005 210.656C302.659 213.098 297.947 214.318 292.869 214.318ZM297.85 200.476C301.463 200.476 304.783 199.646 307.811 197.985C310.838 196.325 313.475 194.03 315.721 191.101C317.967 188.122 319.7 184.68 320.921 180.773C322.19 176.818 322.825 172.546 322.825 167.956C322.825 162.243 321.189 157.58 317.918 153.967C314.646 150.305 310.252 148.474 304.734 148.474C301.365 148.474 298.216 149.255 295.286 150.817C292.356 152.38 289.793 154.602 287.596 157.482C285.398 160.314 283.689 163.684 282.469 167.59C281.248 171.447 280.638 175.695 280.638 180.334C280.638 186.535 282.151 191.442 285.179 195.056C288.255 198.669 292.479 200.476 297.85 200.476ZM372.785 185.681H372.419L350.007 213H331.989L365.534 173.522L348.249 135.729H364.802L376.74 163.049H377.106L399.519 135.729H417.536L383.991 175.134L401.203 213H384.724L372.785 185.681Z" fill="black"/>
<path d="M208.858 239H205.977L209.354 223.271H203.615L204.136 220.681H218.481L217.974 223.271H212.235L208.858 239ZM229.196 236.41L228.676 239H217.021L220.919 220.681H232.573L232.04 223.271H223.28L222.138 228.45H230.428L229.933 230.913H221.643L220.437 236.41H229.196ZM234.325 239H231.697L235.595 220.681H238.794L241.6 235.128H241.676L250.626 220.681H254.168L250.271 239H247.643L250.575 225.429H250.461L242.069 238.873H239.911L237.321 225.429H237.232L234.325 239ZM257.685 220.681H264.21C265.268 220.681 266.212 220.892 267.041 221.315C267.879 221.73 268.535 222.323 269.009 223.093C269.491 223.863 269.732 224.769 269.732 225.81C269.732 227.265 269.402 228.518 268.742 229.567C268.082 230.617 267.181 231.425 266.038 231.992C264.896 232.551 263.592 232.83 262.128 232.83H258.015L256.682 239H253.787L257.685 220.681ZM260.059 223.194L258.51 230.329H262.014C262.987 230.329 263.829 230.164 264.54 229.834C265.259 229.495 265.818 229.009 266.216 228.374C266.614 227.731 266.812 226.965 266.812 226.076C266.812 225.154 266.504 224.443 265.886 223.943C265.268 223.444 264.434 223.194 263.385 223.194H260.059ZM280.6 223.004C279.618 223.004 278.716 223.215 277.896 223.639C277.075 224.062 276.364 224.654 275.763 225.416C275.17 226.169 274.709 227.045 274.379 228.044C274.049 229.034 273.884 230.105 273.884 231.256C273.884 232.348 274.083 233.304 274.48 234.125C274.878 234.938 275.441 235.568 276.169 236.017C276.905 236.465 277.764 236.689 278.746 236.689C279.728 236.689 280.629 236.478 281.45 236.055C282.271 235.623 282.982 235.031 283.583 234.277C284.184 233.516 284.645 232.635 284.967 231.637C285.297 230.638 285.462 229.567 285.462 228.425C285.462 227.316 285.263 226.36 284.865 225.556C284.467 224.743 283.905 224.117 283.177 223.677C282.449 223.228 281.59 223.004 280.6 223.004ZM278.708 239.317C277.142 239.317 275.78 238.983 274.62 238.314C273.461 237.646 272.559 236.719 271.916 235.534C271.281 234.341 270.964 232.961 270.964 231.396C270.964 229.847 271.205 228.404 271.688 227.066C272.17 225.729 272.847 224.561 273.719 223.562C274.59 222.555 275.615 221.772 276.791 221.214C277.967 220.647 279.25 220.363 280.638 220.363C282.212 220.363 283.579 220.698 284.738 221.366C285.898 222.035 286.795 222.966 287.43 224.159C288.064 225.344 288.382 226.719 288.382 228.285C288.382 229.842 288.141 231.29 287.658 232.627C287.176 233.964 286.499 235.136 285.627 236.144C284.755 237.142 283.731 237.921 282.555 238.479C281.378 239.038 280.096 239.317 278.708 239.317ZM298.284 239H295.402L299.3 220.681H302.182L298.284 239ZM304.645 239H301.801L305.698 220.681H308.326L314.788 234.379H314.864L317.822 220.681H320.666L316.769 239H314.141L307.679 225.302H307.603L304.645 239ZM324.183 220.681H329.908C331.508 220.681 332.879 220.977 334.021 221.569C335.173 222.153 336.057 222.995 336.675 224.096C337.293 225.196 337.602 226.521 337.602 228.069C337.602 229.677 337.365 231.15 336.891 232.487C336.417 233.816 335.744 234.967 334.872 235.94C334.009 236.914 332.976 237.667 331.774 238.2C330.581 238.733 329.261 239 327.813 239H320.311L324.183 220.681ZM326.557 223.245L323.7 236.436H327.547C328.579 236.436 329.527 236.241 330.391 235.852C331.262 235.462 332.02 234.912 332.663 234.201C333.306 233.49 333.801 232.648 334.148 231.675C334.495 230.693 334.669 229.614 334.669 228.438C334.669 227.312 334.466 226.364 334.06 225.594C333.662 224.824 333.069 224.24 332.282 223.842C331.504 223.444 330.535 223.245 329.375 223.245H326.557ZM350.665 236.41L350.145 239H338.49L342.388 220.681H354.042L353.509 223.271H344.749L343.606 228.45H351.896L351.401 230.913H343.111L341.905 236.41H350.665ZM351.947 239L360.123 229.682L355.972 220.681H359.158L362.269 227.549H362.37L368.324 220.681H371.828L363.652 229.961L367.804 239H364.63L361.507 232.106H361.393L355.426 239H351.947ZM382.403 236.41L381.883 239H370.229L374.126 220.681H385.78L385.247 223.271H376.487L375.345 228.45H383.635L383.14 230.913H374.85L373.644 236.41H382.403ZM384.904 239L388.802 220.681H395.53C396.707 220.681 397.705 220.892 398.526 221.315C399.347 221.73 399.974 222.314 400.405 223.067C400.837 223.812 401.053 224.68 401.053 225.67C401.053 226.601 400.862 227.473 400.481 228.285C400.101 229.098 399.55 229.8 398.831 230.393C398.112 230.985 397.244 231.404 396.229 231.649L398.717 239H395.721L393.423 232.018H393.461H389.297L387.799 239H384.904ZM391.176 223.182L389.792 229.593H393.829C394.675 229.593 395.416 229.436 396.051 229.123C396.694 228.81 397.198 228.382 397.562 227.841C397.925 227.291 398.107 226.66 398.107 225.949C398.107 225.086 397.841 224.409 397.308 223.918C396.783 223.427 396.059 223.182 395.137 223.182H391.176Z" fill="black"/>
</svg>
